<svg viewBox="153.17 616.56 88.28 44.45">
    <path transform="translate(-33.47, -0.5)"
        d="M 206.0086059570312 654.2062377929688 C 205.4121398925781 652.594482421875 205.0959777832031 650.84228515625 205.0959777832031 649.0138549804688 C 205.0959777832031 648.9913940429688 205.0972442626953 648.9696044921875 205.0972442626953 648.9663696289062 L 201.1888427734375 648.9663696289062 C 201.1888427734375 648.9696044921875 201.1888427734375 648.9913940429688 201.1888427734375 649.0138549804688 C 201.1888427734375 651.787109375 201.7923431396484 654.4069213867188 202.8653411865234 656.7935180664062 C 201.7282104492188 657.34375 200.4557800292969 657.6427001953125 199.1204528808594 657.6427001953125 C 194.3783111572266 657.6427001953125 190.5012969970703 653.781005859375 190.5012969970703 649.0138549804688 C 190.5012969970703 644.2453002929688 194.3783111572266 640.3843994140625 199.1204528808594 640.3843994140625 C 201.9347381591797 640.3843994140625 204.439208984375 641.7344970703125 206.0105438232422 643.8234252929688 C 206.4934844970703 642.5111694335938 207.138671875 641.2899780273438 207.9564208984375 640.1791381835938 C 205.6866455078125 637.900390625 202.5684051513672 636.510009765625 199.1204528808594 636.510009765625 C 192.2393798828125 636.510009765625 186.6409759521484 642.1224975585938 186.6409759521484 649.0138549804688 C 186.6409759521484 655.9000854492188 192.2393798828125 661.510009765625 199.1204528808594 661.510009765625 C 202.5684051513672 661.510009765625 205.6866455078125 660.1080322265625 207.9564208984375 657.8619384765625 C 207.138671875 656.739013671875 206.4934844970703 655.5313110351562 206.0105438232422 654.2030639648438 C 206.0105438232422 654.2042846679688 206.0086059570312 654.2048950195312 206.0086059570312 654.2062377929688 Z M 255.5654602050781 643.82080078125 C 256.1567993164062 645.4312133789062 256.4646606445312 647.1846313476562 256.4646606445312 649.0138549804688 C 256.4646606445312 649.0350341796875 256.4640502929688 649.0536499023438 256.4640502929688 649.0536499023438 L 260.3724365234375 649.0536499023438 C 260.3724365234375 649.0536499023438 260.3743591308594 649.0350341796875 260.3743591308594 649.0138549804688 C 260.3743591308594 646.2406616210938 259.7836608886719 643.6156005859375 258.6953125 641.2342529296875 C 259.8330383300781 640.6974487304688 261.0836791992188 640.3843994140625 262.4465637207031 640.3843994140625 C 267.2048034667969 640.3843994140625 271.0606079101562 644.2453002929688 271.0606079101562 649.0138549804688 C 271.0606079101562 653.781005859375 267.2048034667969 657.6427001953125 262.4465637207031 657.6427001953125 C 259.6194458007812 657.6427001953125 257.1175842285156 656.307373046875 255.5654602050781 654.2042846679688 C 255.0562286376953 655.5313110351562 254.4225616455078 656.7396850585938 253.5984344482422 657.8619384765625 C 255.875244140625 660.106689453125 259.0095520019531 661.510009765625 262.4465637207031 661.510009765625 C 269.3212585449219 661.510009765625 274.9209289550781 655.9000854492188 274.9209289550781 649.0138549804688 C 274.9209289550781 642.1224975585938 269.3212585449219 636.510009765625 262.4465637207031 636.510009765625 C 259.0095520019531 636.510009765625 255.875244140625 637.900390625 253.5984344482422 640.1791381835938 C 254.4225616455078 641.2899780273438 255.0562286376953 642.5111694335938 255.5654602050781 643.8234252929688 L 255.5654602050781 643.82080078125 Z M 241.3427734375 636.510009765625 C 234.4456481933594 636.510009765625 228.8408660888672 642.1224975585938 228.8408660888672 649.0138549804688 L 228.8408660888672 649.1023559570312 C 228.7985229492188 653.8035278320312 224.9625854492188 657.6427001953125 220.2191162109375 657.6427001953125 C 215.4788665771484 657.6427001953125 211.5986633300781 653.781005859375 211.5986633300781 649.0138549804688 C 211.5986633300781 644.2453002929688 215.4788665771484 640.3843994140625 220.2191162109375 640.3843994140625 C 223.0506896972656 640.3843994140625 225.5545501708984 641.7344970703125 227.1162414550781 643.8234252929688 C 227.5940704345703 642.5111694335938 228.2379913330078 641.2899780273438 229.0518646240234 640.1791381835938 C 226.7756652832031 637.900390625 223.6677093505859 636.510009765625 220.2191162109375 636.510009765625 C 213.3373718261719 636.510009765625 207.7383422851562 642.1224975585938 207.7383422851562 649.0138549804688 C 207.7383422851562 655.9000854492188 213.3373718261719 661.510009765625 220.2191162109375 661.510009765625 C 227.1162414550781 661.510009765625 232.7210540771484 655.9000854492188 232.7210540771484 649.0138549804688 L 232.7210540771484 648.9247436523438 C 232.7627258300781 644.2203979492188 236.6006011962891 640.3843994140625 241.3427734375 640.3843994140625 C 246.0830383300781 640.3843994140625 249.9625854492188 644.2453002929688 249.9625854492188 649.0138549804688 C 249.9625854492188 653.781005859375 246.0830383300781 657.6427001953125 241.3427734375 657.6427001953125 C 238.5054321289062 657.6427001953125 236.0060577392578 656.307373046875 234.4456481933594 654.2042846679688 C 233.9672088623047 655.5313110351562 233.3245544433594 656.7396850585938 232.5094146728516 657.8619384765625 C 234.7862243652344 660.106689453125 237.8935699462891 661.510009765625 241.3427734375 661.510009765625 C 248.2322235107422 661.510009765625 253.8318939208984 655.9000854492188 253.8318939208984 649.0138549804688 C 253.8318939208984 642.1224975585938 248.2322235107422 636.510009765625 241.3427734375 636.510009765625 Z"
        fill="#ffffff" fill-opacity="0.3" stroke="none" stroke-width="1" stroke-opacity="0.3"
        stroke-miterlimit="4" stroke-linecap="butt" />
    <path transform="translate(165.53, 624.92)"
        d="M 8.165404319763184 -1.0111083984375 C 8.0445556640625 0.0228271484375 7.662984371185303 0.8206582069396973 7.02069091796875 1.38238525390625 C 6.378397464752197 1.944112062454224 5.524617671966553 2.2249755859375 4.4593505859375 2.2249755859375 C 3.304565191268921 2.2249755859375 2.379170656204224 1.810953617095947 1.68316650390625 0.98291015625 C 0.9871622323989868 0.1548664569854736 0.6391600966453552 -0.9529215693473816 0.6391600966453552 -2.3404541015625 L 0.6391600966453552 -3.2803955078125 C 0.6391600966453552 -4.189005374908447 0.8014119267463684 -4.987955570220947 1.12591552734375 -5.67724609375 C 1.450419068336487 -6.366536140441895 1.910318970680237 -6.89581298828125 2.505614995956421 -7.26507568359375 C 3.100911378860474 -7.63433837890625 3.790201663970947 -7.8189697265625 4.573486328125 -7.8189697265625 C 5.611897945404053 -7.8189697265625 6.444417476654053 -7.529154300689697 7.071044921875 -6.94952392578125 C 7.697672367095947 -6.369893074035645 8.062458992004395 -5.567585945129395 8.165404319763184 -4.5426025390625 L 6.86962890625 -4.5426025390625 C 6.757730960845947 -5.3214111328125 6.514913082122803 -5.8853759765625 6.14117431640625 -6.2344970703125 C 5.767435550689697 -6.5836181640625 5.244873046875 -6.7581787109375 4.573486328125 -6.7581787109375 C 3.749918460845947 -6.7581787109375 3.104268312454224 -6.453816413879395 2.636535406112671 -5.8450927734375 C 2.168802738189697 -5.236368656158447 1.9349365234375 -4.370279788970947 1.9349365234375 -3.246826171875 L 1.9349365234375 -2.3001708984375 C 1.9349365234375 -1.2393798828125 2.156493902206421 -0.3956705927848816 2.599609136581421 0.23095703125 C 3.042724370956421 0.8575844764709473 3.662638187408447 1.1708984375 4.4593505859375 1.1708984375 C 5.175496578216553 1.1708984375 5.72491455078125 1.008646488189697 6.10760498046875 0.68414306640625 C 6.49029541015625 0.3596394062042236 6.744303226470947 -0.2054443359375 6.86962890625 -1.0111083984375 L 8.165404319763184 -1.0111083984375 Z M 13.24108791351318 -4.0592041015625 C 13.05309963226318 -4.090535163879395 12.84944629669189 -4.106201171875 12.63012599945068 -4.106201171875 C 11.81551074981689 -4.106201171875 11.26273536682129 -3.759317874908447 10.97180080413818 -3.0655517578125 L 10.97180080413818 2.0906982421875 L 9.729735374450684 2.0906982421875 L 9.729735374450684 -5.1737060546875 L 10.93823146820068 -5.1737060546875 L 10.95837306976318 -4.33447265625 C 11.36568164825439 -4.983479499816895 11.94307422637939 -5.3079833984375 12.69055080413818 -5.3079833984375 C 12.93225002288818 -5.3079833984375 13.11576271057129 -5.276651859283447 13.24108791351318 -5.2139892578125 L 13.24108791351318 -4.0592041015625 Z M 18.5987548828125 2.0906982421875 C 18.52713966369629 1.947468996047974 18.46895408630371 1.692342042922974 18.4241943359375 1.3253173828125 C 17.8468017578125 1.925089359283447 17.15751075744629 2.2249755859375 16.3563232421875 2.2249755859375 C 15.64017677307129 2.2249755859375 15.05271339416504 2.022440433502197 14.59393215179443 1.61737060546875 C 14.13515186309814 1.212300539016724 13.90576076507568 0.6986896991729736 13.90576076507568 0.0765380859375 C 13.90576076507568 -0.6798909902572632 14.19333839416504 -1.267354369163513 14.76849269866943 -1.68585205078125 C 15.34364795684814 -2.104349613189697 16.15266990661621 -2.3135986328125 17.195556640625 -2.3135986328125 L 18.404052734375 -2.3135986328125 L 18.404052734375 -2.88427734375 C 18.404052734375 -3.318440675735474 18.27425193786621 -3.664204835891724 18.0146484375 -3.92156982421875 C 17.75504493713379 -4.178934574127197 17.37235450744629 -4.3076171875 16.8665771484375 -4.3076171875 C 16.4234619140625 -4.3076171875 16.05196189880371 -4.195719242095947 15.75207424163818 -3.971923828125 C 15.45218849182129 -3.748128175735474 15.30224514007568 -3.477335453033447 15.30224514007568 -3.1595458984375 L 14.05346584320068 -3.1595458984375 C 14.05346584320068 -3.5220947265625 14.18214893341064 -3.872334718704224 14.43951320648193 -4.21026611328125 C 14.69687843322754 -4.548197269439697 15.04599952697754 -4.815632820129395 15.48687648773193 -5.0125732421875 C 15.92775440216064 -5.209513187408447 16.41227149963379 -5.3079833984375 16.9404296875 -5.3079833984375 C 17.77742576599121 -5.3079833984375 18.43314552307129 -5.098734378814697 18.9075927734375 -4.68023681640625 C 19.38204002380371 -4.261738777160645 19.62821388244629 -3.685465335845947 19.6461181640625 -2.951416015625 L 19.6461181640625 0.39208984375 C 19.6461181640625 1.059000492095947 19.73116111755371 1.589395999908447 19.9012451171875 1.9832763671875 L 19.9012451171875 2.0906982421875 L 18.5987548828125 2.0906982421875 Z M 16.53759765625 1.14404296875 C 16.927001953125 1.14404296875 17.2962646484375 1.0433349609375 17.6453857421875 0.8419189453125 C 17.9945068359375 0.6405029296875 18.24739646911621 0.378662109375 18.404052734375 0.056396484375 L 18.404052734375 -1.43408203125 L 17.4305419921875 -1.43408203125 C 15.90873146057129 -1.43408203125 15.14782619476318 -0.9887288808822632 15.14782619476318 -0.0980224609375 C 15.14782619476318 0.2913818359375 15.27762794494629 0.5957437753677368 15.53723049163818 0.8150634765625 C 15.79683399200439 1.034383058547974 16.13028907775879 1.14404296875 16.53759765625 1.14404296875 Z M 22.2041015625 2.0906982421875 L 22.2041015625 -4.213623046875 L 21.0560302734375 -4.213623046875 L 21.0560302734375 -5.1737060546875 L 22.2041015625 -5.1737060546875 L 22.2041015625 -5.9189453125 C 22.2041015625 -6.69775390625 22.4122314453125 -7.299763679504395 22.8284912109375 -7.7249755859375 C 23.2447509765625 -8.150186538696289 23.83333396911621 -8.36279296875 24.59423828125 -8.36279296875 C 24.88069725036621 -8.36279296875 25.1649169921875 -8.324747085571289 25.4468994140625 -8.2486572265625 L 25.3797607421875 -7.2415771484375 C 25.16939353942871 -7.2818603515625 24.94559669494629 -7.302001953125 24.7083740234375 -7.302001953125 C 24.3055419921875 -7.302001953125 23.99446678161621 -7.18450927734375 23.775146484375 -6.94952392578125 C 23.55582618713379 -6.71453857421875 23.4461669921875 -6.377726078033447 23.4461669921875 -5.9390869140625 L 23.4461669921875 -5.1737060546875 L 24.9970703125 -5.1737060546875 L 24.9970703125 -4.213623046875 L 23.4461669921875 -4.213623046875 L 23.4461669921875 2.0906982421875 L 22.2041015625 2.0906982421875 Z M 28.0518798828125 -6.9327392578125 L 28.0518798828125 -5.1737060546875 L 29.4080810546875 -5.1737060546875 L 29.4080810546875 -4.213623046875 L 28.0518798828125 -4.213623046875 L 28.0518798828125 0.2913818359375 C 28.0518798828125 0.5823160409927368 28.1123046875 0.8005166053771973 28.233154296875 0.94598388671875 C 28.35400390625 1.091450929641724 28.55989646911621 1.1641845703125 28.850830078125 1.1641845703125 C 28.99405860900879 1.1641845703125 29.19099998474121 1.1373291015625 29.441650390625 1.0836181640625 L 29.441650390625 2.0906982421875 C 29.11490821838379 2.180216312408447 28.797119140625 2.2249755859375 28.48828125 2.2249755859375 C 27.93326759338379 2.2249755859375 27.5147705078125 2.05712890625 27.2327880859375 1.721435546875 C 26.9508056640625 1.3857421875 26.809814453125 0.9090576171875 26.809814453125 0.2913818359375 L 26.809814453125 -4.213623046875 L 25.4871826171875 -4.213623046875 L 25.4871826171875 -5.1737060546875 L 26.809814453125 -5.1737060546875 L 26.809814453125 -6.9327392578125 L 28.0518798828125 -6.9327392578125 Z M 33.87279891967773 2.2249755859375 C 32.88809967041016 2.2249755859375 32.0869140625 1.901590824127197 31.46923828125 1.25482177734375 C 30.8515625 0.6080524921417236 30.542724609375 -0.2569173574447632 30.542724609375 -1.340087890625 L 30.542724609375 -1.568359375 C 30.542724609375 -2.288980960845947 30.68035888671875 -2.932393312454224 30.95562744140625 -3.49859619140625 C 31.23089599609375 -4.064798831939697 31.61582374572754 -4.507914066314697 32.11040878295898 -4.82794189453125 C 32.60499954223633 -5.147969245910645 33.14098739624023 -5.3079833984375 33.71837997436523 -5.3079833984375 C 34.66279983520508 -5.3079833984375 35.39684677124023 -4.996907234191895 35.92052841186523 -4.374755859375 C 36.44421005249023 -3.752604007720947 36.70605087280273 -2.861897706985474 36.70605087280273 -1.70263671875 L 36.70605087280273 -1.1856689453125 L 31.7847900390625 -1.1856689453125 C 31.80269432067871 -0.4695231318473816 32.01194000244141 0.1089884042739868 32.41253280639648 0.54986572265625 C 32.81312942504883 0.9907429218292236 33.32226181030273 1.211181640625 33.93993759155273 1.211181640625 C 34.37857818603516 1.211181640625 34.75008010864258 1.121663331985474 35.05443954467773 0.942626953125 C 35.35880279541016 0.7635903358459473 35.62511825561523 0.5263671875 35.85338973999023 0.23095703125 L 36.61205673217773 0.82177734375 C 36.00333404541016 1.757242679595947 35.09024810791016 2.2249755859375 33.87279891967773 2.2249755859375 Z M 33.71837997436523 -4.2874755859375 C 33.21707916259766 -4.2874755859375 32.79634475708008 -4.105082035064697 32.45617294311523 -3.74029541015625 C 32.11600494384766 -3.375508546829224 31.9056396484375 -2.8641357421875 31.8250732421875 -2.2061767578125 L 35.46398544311523 -2.2061767578125 L 35.46398544311523 -2.3001708984375 C 35.42818069458008 -2.9312744140625 35.25809478759766 -3.420267581939697 34.95373153686523 -3.76715087890625 C 34.64937210083008 -4.114033699035645 34.23758697509766 -4.2874755859375 33.71837997436523 -4.2874755859375 Z M 37.84069442749023 -1.6019287109375 C 37.84069442749023 -2.7164306640625 38.10477447509766 -3.61273193359375 38.63293075561523 -4.29083251953125 C 39.16109085083008 -4.96893310546875 39.85261917114258 -5.3079833984375 40.70751571655273 -5.3079833984375 C 41.55794143676758 -5.3079833984375 42.23156356811523 -5.017048835754395 42.72838973999023 -4.4351806640625 L 42.72838973999023 -8.2218017578125 L 43.97045516967773 -8.2218017578125 L 43.97045516967773 2.0906982421875 L 42.82909774780273 2.0906982421875 L 42.76867294311523 1.3118896484375 C 42.27184677124023 1.920613527297974 41.58031845092773 2.2249755859375 40.69408798217773 2.2249755859375 C 39.85261917114258 2.2249755859375 39.16668319702148 1.880330324172974 38.63628768920898 1.1910400390625 C 38.10589218139648 0.5017496347427368 37.84069442749023 -0.3979085683822632 37.84069442749023 -1.5079345703125 L 37.84069442749023 -1.6019287109375 Z M 39.08275985717773 -1.4609375 C 39.08275985717773 -0.6373698115348816 39.25284576416016 0.007161378860473633 39.59301376342773 0.47265625 C 39.93318557739258 0.9381508827209473 40.40315628051758 1.1708984375 41.00292587280273 1.1708984375 C 41.79068756103516 1.1708984375 42.36584091186523 0.8173012733459473 42.72838973999023 0.110107421875 L 42.72838973999023 -3.2266845703125 C 42.35689163208008 -3.9114990234375 41.78621292114258 -4.25390625 41.01635360717773 -4.25390625 C 40.40763092041016 -4.25390625 39.93318557739258 -4.0189208984375 39.59301376342773 -3.5489501953125 C 39.25284576416016 -3.0789794921875 39.08275985717773 -2.382975101470947 39.08275985717773 -1.4609375 Z M 55.45116806030273 -1.4609375 C 55.45116806030273 -0.3509114980697632 55.19604110717773 0.5409138202667236 54.68578720092773 1.21453857421875 C 54.17553329467773 1.888163089752197 53.49071884155273 2.2249755859375 52.63134384155273 2.2249755859375 C 51.71378326416016 2.2249755859375 51.00435256958008 1.900471925735474 50.50304794311523 1.25146484375 L 50.44262313842773 2.0906982421875 L 49.30126571655273 2.0906982421875 L 49.30126571655273 -8.2218017578125 L 50.54333114624023 -8.2218017578125 L 50.54333114624023 -4.374755859375 C 51.04463577270508 -4.996907234191895 51.73616409301758 -5.3079833984375 52.61791610717773 -5.3079833984375 C 53.49967193603516 -5.3079833984375 54.19231796264648 -4.974527835845947 54.69585800170898 -4.3076171875 C 55.19939804077148 -3.640706300735474 55.45116806030273 -2.727620363235474 55.45116806030273 -1.568359375 L 55.45116806030273 -1.4609375 Z M 54.20910263061523 -1.6019287109375 C 54.20910263061523 -2.4478759765625 54.04573440551758 -3.101358890533447 53.71899032592773 -3.5623779296875 C 53.39225006103516 -4.023396492004395 52.92227935791016 -4.25390625 52.30907821655273 -4.25390625 C 51.48998641967773 -4.25390625 50.90140533447266 -3.873453617095947 50.54333114624023 -3.112548828125 L 50.54333114624023 0.029541015625 C 50.92378616333008 0.7904458045959473 51.51684188842773 1.1708984375 52.32250595092773 1.1708984375 C 52.91780471801758 1.1708984375 53.38106155395508 0.9403889179229736 53.71227645874023 0.4793701171875 C 54.04349517822266 0.01835119724273682 54.20910263061523 -0.6754150390625 54.20910263061523 -1.6019287109375 Z M 59.39220809936523 0.271240234375 L 61.08410263061523 -5.1737060546875 L 62.41344833374023 -5.1737060546875 L 59.49291610717773 3.2119140625 C 59.04085159301758 4.42041015625 58.32246780395508 5.024658203125 57.33776473999023 5.024658203125 L 57.10277938842773 5.0045166015625 L 56.63952255249023 4.917236328125 L 56.63952255249023 3.91015625 L 56.97521591186523 3.93701171875 C 57.39595413208008 3.93701171875 57.72381210327148 3.851969242095947 57.95879745483398 3.681884765625 C 58.19378280639648 3.511799812316895 58.38736724853516 3.200724124908447 58.53954696655273 2.7486572265625 L 58.81481552124023 2.0101318359375 L 56.22326278686523 -5.1737060546875 L 57.57946395874023 -5.1737060546875 L 59.39220809936523 0.271240234375 Z"
        fill="#ffffff" fill-opacity="0.3" stroke="none" stroke-width="1" stroke-opacity="0.3"
        stroke-miterlimit="4" stroke-linecap="butt" />
</svg>
